<svg xmlns="http://www.w3.org/2000/svg" viewBox="0 0 743 637" width="743" height="637">
  <rect width="743" height="637" fill="white" />
  <rect x="20.0" y="393.8" width="385.8" height="223.8" fill="#AED6F1" opacity="0.6" stroke="none" />
  <text x="212.9" y="505.7" text-anchor="middle" dominant-baseline="middle" font-size="40" fill="#555555" font-family="Arial">salon</text>
  <rect x="405.8" y="393.8" width="317.4" height="223.8" fill="#A9DFBF" opacity="0.6" stroke="none" />
  <text x="564.5" y="505.7" text-anchor="middle" dominant-baseline="middle" font-size="40" fill="#555555" font-family="Arial">cuisine</text>
  <rect x="20.0" y="156.8" width="239.4" height="237.0" fill="#F9E79F" opacity="0.6" stroke="none" />
  <text x="139.7" y="275.3" text-anchor="middle" dominant-baseline="middle" font-size="42" fill="#555555" font-family="Arial">chambre</text>
  <rect x="259.4" y="156.8" width="267.0" height="237.0" fill="#F9E79F" opacity="0.6" stroke="none" />
  <text x="392.9" y="275.3" text-anchor="middle" dominant-baseline="middle" font-size="42" fill="#555555" font-family="Arial">chambre</text>
  <rect x="526.4" y="156.8" width="196.8" height="237.0" fill="#FADBD8" opacity="0.6" stroke="none" />
  <text x="624.8" y="275.3" text-anchor="middle" dominant-baseline="middle" font-size="35" fill="#555555" font-family="Arial">bureau</text>
  <rect x="20.0" y="20.0" width="456.6" height="136.8" fill="#D7BDE2" opacity="0.6" stroke="none" />
  <text x="248.3" y="88.4" text-anchor="middle" dominant-baseline="middle" font-size="24" fill="#555555" font-family="Arial">salle bain</text>
  <rect x="476.6" y="20.0" width="246.6" height="136.8" fill="#FDEBD0" opacity="0.6" stroke="none" />
  <text x="599.9" y="88.4" text-anchor="middle" dominant-baseline="middle" font-size="24" fill="#555555" font-family="Arial">wc</text>
  <line x1="20" y1="617.6" x2="723.2" y2="617.6" stroke="#000000" stroke-width="3" />
  <line x1="723.2" y1="617.6" x2="723.2" y2="20.0" stroke="#000000" stroke-width="3" />
  <line x1="723.2" y1="20.0" x2="20" y2="20.0" stroke="#000000" stroke-width="1.5" />
  <line x1="20" y1="20.0" x2="20" y2="617.6" stroke="#000000" stroke-width="3" />
  <line x1="405.8" y1="617.6" x2="405.8" y2="393.8" stroke="#000000" stroke-width="1.5" />
  <line x1="405.8" y1="393.8" x2="20.0" y2="393.8" stroke="#000000" stroke-width="1.5" />
  <line x1="723.2" y1="617.6" x2="723.2" y2="393.8" stroke="#000000" stroke-width="1.5" />
  <line x1="723.2" y1="393.8" x2="405.8" y2="393.8" stroke="#000000" stroke-width="1.5" />
  <line x1="405.8" y1="393.8" x2="405.8" y2="617.6" stroke="#000000" stroke-width="1.5" />
  <line x1="20.0" y1="393.8" x2="259.4" y2="393.8" stroke="#000000" stroke-width="1.5" />
  <line x1="259.4" y1="393.8" x2="259.4" y2="156.8" stroke="#000000" stroke-width="1.5" />
  <line x1="259.4" y1="156.8" x2="20.0" y2="156.8" stroke="#000000" stroke-width="1.5" />
  <line x1="259.4" y1="393.8" x2="526.4" y2="393.8" stroke="#000000" stroke-width="1.5" />
  <line x1="526.4" y1="393.8" x2="526.4" y2="156.8" stroke="#000000" stroke-width="1.5" />
  <line x1="526.4" y1="156.8" x2="259.4" y2="156.8" stroke="#000000" stroke-width="1.5" />
  <line x1="259.4" y1="156.8" x2="259.4" y2="393.8" stroke="#000000" stroke-width="1.5" />
  <line x1="526.4" y1="393.8" x2="723.2" y2="393.8" stroke="#000000" stroke-width="1.5" />
  <line x1="723.2" y1="393.8" x2="723.2" y2="156.8" stroke="#000000" stroke-width="1.5" />
  <line x1="723.2" y1="156.8" x2="526.4" y2="156.8" stroke="#000000" stroke-width="1.5" />
  <line x1="526.4" y1="156.8" x2="526.4" y2="393.8" stroke="#000000" stroke-width="1.5" />
  <line x1="20.0" y1="156.8" x2="476.6" y2="156.8" stroke="#000000" stroke-width="1.5" />
  <line x1="476.6" y1="156.8" x2="476.6" y2="20.0" stroke="#000000" stroke-width="1.5" />
  <line x1="476.6" y1="156.8" x2="723.2" y2="156.8" stroke="#000000" stroke-width="1.5" />
  <line x1="476.6" y1="20.0" x2="476.6" y2="156.8" stroke="#000000" stroke-width="1.5" />
  <text x="20" y="15" font-size="11" fill="#333333" font-family="Arial">T3_B — 11.7m × 10.0m — 116.7m²</text>
</svg>