<svg xmlns="http://www.w3.org/2000/svg" viewBox="0 0 444 581" width="444" height="581">
  <rect width="444" height="581" fill="white" />
  <rect x="20.0" y="333.2" width="232.8" height="228.0" fill="#AED6F1" opacity="0.6" stroke="none" />
  <text x="136.4" y="447.2" text-anchor="middle" dominant-baseline="middle" font-size="41" fill="#555555" font-family="Arial">salon</text>
  <rect x="252.8" y="333.2" width="171.6" height="228.0" fill="#A9DFBF" opacity="0.6" stroke="none" />
  <text x="338.6" y="447.2" text-anchor="middle" dominant-baseline="middle" font-size="30" fill="#555555" font-family="Arial">cuisine</text>
  <rect x="20.0" y="132.2" width="404.4" height="201.0" fill="#F9E79F" opacity="0.6" stroke="none" />
  <text x="222.2" y="232.7" text-anchor="middle" dominant-baseline="middle" font-size="36" fill="#555555" font-family="Arial">chambre</text>
  <rect x="20.0" y="20.0" width="264.0" height="112.2" fill="#D7BDE2" opacity="0.6" stroke="none" />
  <text x="152.0" y="76.1" text-anchor="middle" dominant-baseline="middle" font-size="20" fill="#555555" font-family="Arial">salle bain</text>
  <rect x="284.0" y="20.0" width="140.4" height="112.2" fill="#FDEBD0" opacity="0.6" stroke="none" />
  <text x="354.2" y="76.1" text-anchor="middle" dominant-baseline="middle" font-size="20" fill="#555555" font-family="Arial">wc</text>
  <line x1="20" y1="561.2" x2="424.4" y2="561.2" stroke="#000000" stroke-width="3" />
  <line x1="424.4" y1="561.2" x2="424.4" y2="20.0" stroke="#000000" stroke-width="3" />
  <line x1="424.4" y1="20.0" x2="20" y2="20.0" stroke="#000000" stroke-width="3" />
  <line x1="20" y1="20.0" x2="20" y2="561.2" stroke="#000000" stroke-width="3" />
  <line x1="252.8" y1="561.2" x2="252.8" y2="333.2" stroke="#000000" stroke-width="1.5" />
  <line x1="252.8" y1="333.2" x2="20.0" y2="333.2" stroke="#000000" stroke-width="1.5" />
  <line x1="424.4" y1="333.2" x2="252.8" y2="333.2" stroke="#000000" stroke-width="1.5" />
  <line x1="252.8" y1="333.2" x2="252.8" y2="561.2" stroke="#000000" stroke-width="1.5" />
  <line x1="20.0" y1="333.2" x2="424.4" y2="333.2" stroke="#000000" stroke-width="1.5" />
  <line x1="424.4" y1="132.2" x2="20.0" y2="132.2" stroke="#000000" stroke-width="1.5" />
  <line x1="20.0" y1="132.2" x2="284.0" y2="132.2" stroke="#000000" stroke-width="1.5" />
  <line x1="284.0" y1="132.2" x2="284.0" y2="20.0" stroke="#000000" stroke-width="1.5" />
  <line x1="284.0" y1="132.2" x2="424.4" y2="132.2" stroke="#000000" stroke-width="1.5" />
  <line x1="284.0" y1="20.0" x2="284.0" y2="132.2" stroke="#000000" stroke-width="1.5" />
  <text x="20" y="15" font-size="11" fill="#333333" font-family="Arial">T2_A — 6.7m × 9.0m — 60.8m²</text>
</svg>