<svg xmlns="http://www.w3.org/2000/svg" viewBox="0 0 520 445" width="520" height="445">
  <rect width="520" height="445" fill="white" />
  <rect x="20.0" y="150.2" width="292.2" height="275.4" fill="#AED6F1" opacity="0.6" stroke="none" />
  <text x="166.1" y="287.9" text-anchor="middle" dominant-baseline="middle" font-size="49" fill="#555555" font-family="Arial">salon</text>
  <rect x="312.2" y="150.2" width="188.4" height="275.4" fill="#A9DFBF" opacity="0.6" stroke="none" />
  <text x="406.4" y="287.9" text-anchor="middle" dominant-baseline="middle" font-size="33" fill="#555555" font-family="Arial">cuisine</text>
  <rect x="20.0" y="20.0" width="346.2" height="130.2" fill="#D7BDE2" opacity="0.6" stroke="none" />
  <text x="193.1" y="85.1" text-anchor="middle" dominant-baseline="middle" font-size="23" fill="#555555" font-family="Arial">salle bain</text>
  <rect x="366.2" y="20.0" width="134.4" height="130.2" fill="#FDEBD0" opacity="0.6" stroke="none" />
  <text x="433.4" y="85.1" text-anchor="middle" dominant-baseline="middle" font-size="23" fill="#555555" font-family="Arial">wc</text>
  <line x1="20" y1="425.6" x2="500.6" y2="425.6" stroke="#000000" stroke-width="3" />
  <line x1="500.6" y1="425.6" x2="500.6" y2="20.0" stroke="#000000" stroke-width="3" />
  <line x1="500.6" y1="20.0" x2="20" y2="20.0" stroke="#000000" stroke-width="3" />
  <line x1="20" y1="20.0" x2="20" y2="425.6" stroke="#000000" stroke-width="3" />
  <line x1="312.2" y1="425.6" x2="312.2" y2="150.2" stroke="#000000" stroke-width="1.5" />
  <line x1="312.2" y1="150.2" x2="20.0" y2="150.2" stroke="#000000" stroke-width="1.5" />
  <line x1="500.6" y1="150.2" x2="312.2" y2="150.2" stroke="#000000" stroke-width="1.5" />
  <line x1="312.2" y1="150.2" x2="312.2" y2="425.6" stroke="#000000" stroke-width="1.5" />
  <line x1="20.0" y1="150.2" x2="366.2" y2="150.2" stroke="#000000" stroke-width="1.5" />
  <line x1="366.2" y1="150.2" x2="366.2" y2="20.0" stroke="#000000" stroke-width="1.5" />
  <line x1="366.2" y1="150.2" x2="500.6" y2="150.2" stroke="#000000" stroke-width="1.5" />
  <line x1="366.2" y1="20.0" x2="366.2" y2="150.2" stroke="#000000" stroke-width="1.5" />
  <text x="20" y="15" font-size="11" fill="#333333" font-family="Arial">Studio — 8.0m × 6.8m — 54.1m²</text>
</svg>