<svg xmlns="http://www.w3.org/2000/svg" viewBox="0 0 509 711" width="509" height="711">
  <rect width="509" height="711" fill="white" />
  <rect x="20.0" y="420.8" width="242.4" height="270.6" fill="#AED6F1" opacity="0.6" stroke="none" />
  <text x="141.2" y="556.1" text-anchor="middle" dominant-baseline="middle" font-size="43" fill="#555555" font-family="Arial">salon</text>
  <rect x="262.4" y="420.8" width="226.8" height="270.6" fill="#A9DFBF" opacity="0.6" stroke="none" />
  <text x="375.8" y="556.1" text-anchor="middle" dominant-baseline="middle" font-size="40" fill="#555555" font-family="Arial">cuisine</text>
  <rect x="20.0" y="212.6" width="264.6" height="208.2" fill="#F9E79F" opacity="0.6" stroke="none" />
  <text x="152.3" y="316.7" text-anchor="middle" dominant-baseline="middle" font-size="37" fill="#555555" font-family="Arial">chambre</text>
  <rect x="284.6" y="212.6" width="204.6" height="208.2" fill="#F9E79F" opacity="0.6" stroke="none" />
  <text x="386.9" y="316.7" text-anchor="middle" dominant-baseline="middle" font-size="36" fill="#555555" font-family="Arial">chambre</text>
  <rect x="20.0" y="20.0" width="209.4" height="192.6" fill="#D7BDE2" opacity="0.6" stroke="none" />
  <text x="124.7" y="116.3" text-anchor="middle" dominant-baseline="middle" font-size="34" fill="#555555" font-family="Arial">salle bain</text>
  <rect x="229.4" y="20.0" width="122.4" height="192.6" fill="#FDEBD0" opacity="0.6" stroke="none" />
  <text x="290.6" y="116.3" text-anchor="middle" dominant-baseline="middle" font-size="22" fill="#555555" font-family="Arial">wc</text>
  <rect x="351.8" y="20.0" width="137.4" height="192.6" fill="#D5D8DC" opacity="0.6" stroke="none" />
  <text x="420.5" y="116.3" text-anchor="middle" dominant-baseline="middle" font-size="24" fill="#555555" font-family="Arial">couloir</text>
  <line x1="20" y1="691.4" x2="489.2" y2="691.4" stroke="#000000" stroke-width="3" />
  <line x1="489.2" y1="691.4" x2="489.2" y2="20.0" stroke="#000000" stroke-width="3" />
  <line x1="489.2" y1="20.0" x2="20" y2="20.0" stroke="#000000" stroke-width="1.5" />
  <line x1="20" y1="20.0" x2="20" y2="691.4" stroke="#000000" stroke-width="3" />
  <line x1="262.4" y1="691.4" x2="262.4" y2="420.8" stroke="#000000" stroke-width="1.5" />
  <line x1="262.4" y1="420.8" x2="20.0" y2="420.8" stroke="#000000" stroke-width="1.5" />
  <line x1="489.2" y1="420.8" x2="262.4" y2="420.8" stroke="#000000" stroke-width="1.5" />
  <line x1="262.4" y1="420.8" x2="262.4" y2="691.4" stroke="#000000" stroke-width="1.5" />
  <line x1="20.0" y1="420.8" x2="284.6" y2="420.8" stroke="#000000" stroke-width="1.5" />
  <line x1="284.6" y1="420.8" x2="284.6" y2="212.6" stroke="#000000" stroke-width="1.5" />
  <line x1="284.6" y1="212.6" x2="20.0" y2="212.6" stroke="#000000" stroke-width="1.5" />
  <line x1="284.6" y1="420.8" x2="489.2" y2="420.8" stroke="#000000" stroke-width="1.5" />
  <line x1="489.2" y1="212.6" x2="284.6" y2="212.6" stroke="#000000" stroke-width="1.5" />
  <line x1="284.6" y1="212.6" x2="284.6" y2="420.8" stroke="#000000" stroke-width="1.5" />
  <line x1="20.0" y1="212.6" x2="229.4" y2="212.6" stroke="#000000" stroke-width="1.5" />
  <line x1="229.4" y1="212.6" x2="229.4" y2="20.0" stroke="#000000" stroke-width="1.5" />
  <line x1="229.4" y1="212.6" x2="351.8" y2="212.6" stroke="#000000" stroke-width="1.5" />
  <line x1="351.8" y1="212.6" x2="351.8" y2="20.0" stroke="#000000" stroke-width="1.5" />
  <line x1="229.4" y1="20.0" x2="229.4" y2="212.6" stroke="#000000" stroke-width="1.5" />
  <line x1="351.8" y1="212.6" x2="489.2" y2="212.6" stroke="#000000" stroke-width="1.5" />
  <line x1="351.8" y1="20.0" x2="351.8" y2="212.6" stroke="#000000" stroke-width="1.5" />
  <text x="20" y="15" font-size="11" fill="#333333" font-family="Arial">T3_A — 7.8m × 11.2m — 87.5m²</text>
</svg>