<svg xmlns="http://www.w3.org/2000/svg" viewBox="0 0 527 735" width="527" height="735">
  <rect width="527" height="735" fill="white" />
  <rect x="20.0" y="428.0" width="311.4" height="287.4" fill="#AED6F1" opacity="0.6" stroke="none" />
  <text x="175.7" y="571.7" text-anchor="middle" dominant-baseline="middle" font-size="51" fill="#555555" font-family="Arial">salon</text>
  <rect x="331.4" y="428.0" width="175.8" height="287.4" fill="#A9DFBF" opacity="0.6" stroke="none" />
  <text x="419.3" y="571.7" text-anchor="middle" dominant-baseline="middle" font-size="31" fill="#555555" font-family="Arial">cuisine</text>
  <rect x="20.0" y="244.4" width="240.6" height="183.6" fill="#F9E79F" opacity="0.6" stroke="none" />
  <text x="140.3" y="336.2" text-anchor="middle" dominant-baseline="middle" font-size="33" fill="#555555" font-family="Arial">chambre</text>
  <rect x="260.6" y="244.4" width="246.6" height="183.6" fill="#F9E79F" opacity="0.6" stroke="none" />
  <text x="383.9" y="336.2" text-anchor="middle" dominant-baseline="middle" font-size="33" fill="#555555" font-family="Arial">chambre</text>
  <rect x="20.0" y="20.0" width="219.0" height="224.4" fill="#D7BDE2" opacity="0.6" stroke="none" />
  <text x="129.5" y="132.2" text-anchor="middle" dominant-baseline="middle" font-size="39" fill="#555555" font-family="Arial">salle bain</text>
  <rect x="239.0" y="20.0" width="116.4" height="224.4" fill="#FDEBD0" opacity="0.6" stroke="none" />
  <text x="297.2" y="132.2" text-anchor="middle" dominant-baseline="middle" font-size="20" fill="#555555" font-family="Arial">wc</text>
  <rect x="355.4" y="20.0" width="151.8" height="224.4" fill="#D5D8DC" opacity="0.6" stroke="none" />
  <text x="431.3" y="132.2" text-anchor="middle" dominant-baseline="middle" font-size="27" fill="#555555" font-family="Arial">couloir</text>
  <line x1="20" y1="715.4" x2="507.2" y2="715.4" stroke="#000000" stroke-width="3" />
  <line x1="507.2" y1="715.4" x2="507.2" y2="20.0" stroke="#000000" stroke-width="1.5" />
  <line x1="507.2" y1="20.0" x2="20" y2="20.0" stroke="#000000" stroke-width="3" />
  <line x1="20" y1="20.0" x2="20" y2="715.4" stroke="#000000" stroke-width="3" />
  <line x1="331.4" y1="715.4" x2="331.4" y2="428.0" stroke="#000000" stroke-width="1.5" />
  <line x1="331.4" y1="428.0" x2="20.0" y2="428.0" stroke="#000000" stroke-width="1.5" />
  <line x1="507.2" y1="428.0" x2="331.4" y2="428.0" stroke="#000000" stroke-width="1.5" />
  <line x1="331.4" y1="428.0" x2="331.4" y2="715.4" stroke="#000000" stroke-width="1.5" />
  <line x1="20.0" y1="428.0" x2="260.6" y2="428.0" stroke="#000000" stroke-width="1.5" />
  <line x1="260.6" y1="428.0" x2="260.6" y2="244.4" stroke="#000000" stroke-width="1.5" />
  <line x1="260.6" y1="244.4" x2="20.0" y2="244.4" stroke="#000000" stroke-width="1.5" />
  <line x1="260.6" y1="428.0" x2="507.2" y2="428.0" stroke="#000000" stroke-width="1.5" />
  <line x1="507.2" y1="244.4" x2="260.6" y2="244.4" stroke="#000000" stroke-width="1.5" />
  <line x1="260.6" y1="244.4" x2="260.6" y2="428.0" stroke="#000000" stroke-width="1.5" />
  <line x1="20.0" y1="244.4" x2="239.0" y2="244.4" stroke="#000000" stroke-width="1.5" />
  <line x1="239.0" y1="244.4" x2="239.0" y2="20.0" stroke="#000000" stroke-width="1.5" />
  <line x1="239.0" y1="244.4" x2="355.4" y2="244.4" stroke="#000000" stroke-width="1.5" />
  <line x1="355.4" y1="244.4" x2="355.4" y2="20.0" stroke="#000000" stroke-width="1.5" />
  <line x1="239.0" y1="20.0" x2="239.0" y2="244.4" stroke="#000000" stroke-width="1.5" />
  <line x1="355.4" y1="244.4" x2="507.2" y2="244.4" stroke="#000000" stroke-width="1.5" />
  <line x1="507.2" y1="244.4" x2="507.2" y2="20.0" stroke="#000000" stroke-width="3" />
  <line x1="355.4" y1="20.0" x2="355.4" y2="244.4" stroke="#000000" stroke-width="1.5" />
  <text x="20" y="15" font-size="11" fill="#333333" font-family="Arial">T3_A — 8.1m × 11.6m — 94.1m²</text>
</svg>