<svg xmlns="http://www.w3.org/2000/svg" viewBox="0 0 515 566" width="515" height="566">
  <rect width="515" height="566" fill="white" />
  <rect x="20.0" y="327.8" width="254.4" height="218.4" fill="#AED6F1" opacity="0.6" stroke="none" />
  <text x="147.2" y="437.0" text-anchor="middle" dominant-baseline="middle" font-size="39" fill="#555555" font-family="Arial">salon</text>
  <rect x="274.4" y="327.8" width="220.8" height="218.4" fill="#A9DFBF" opacity="0.6" stroke="none" />
  <text x="384.8" y="437.0" text-anchor="middle" dominant-baseline="middle" font-size="39" fill="#555555" font-family="Arial">cuisine</text>
  <rect x="20.0" y="155.6" width="475.2" height="172.2" fill="#F9E79F" opacity="0.6" stroke="none" />
  <text x="257.6" y="241.7" text-anchor="middle" dominant-baseline="middle" font-size="30" fill="#555555" font-family="Arial">chambre</text>
  <rect x="20.0" y="20.0" width="339.0" height="135.6" fill="#D7BDE2" opacity="0.6" stroke="none" />
  <text x="189.5" y="87.8" text-anchor="middle" dominant-baseline="middle" font-size="24" fill="#555555" font-family="Arial">salle bain</text>
  <rect x="359.0" y="20.0" width="136.2" height="135.6" fill="#FDEBD0" opacity="0.6" stroke="none" />
  <text x="427.1" y="87.8" text-anchor="middle" dominant-baseline="middle" font-size="24" fill="#555555" font-family="Arial">wc</text>
  <line x1="20" y1="546.2" x2="495.2" y2="546.2" stroke="#000000" stroke-width="3" />
  <line x1="495.2" y1="546.2" x2="495.2" y2="20.0" stroke="#000000" stroke-width="3" />
  <line x1="495.2" y1="20.0" x2="20" y2="20.0" stroke="#000000" stroke-width="3" />
  <line x1="20" y1="20.0" x2="20" y2="546.2" stroke="#000000" stroke-width="3" />
  <line x1="274.4" y1="546.2" x2="274.4" y2="327.8" stroke="#000000" stroke-width="1.5" />
  <line x1="274.4" y1="327.8" x2="20.0" y2="327.8" stroke="#000000" stroke-width="1.5" />
  <line x1="495.2" y1="327.8" x2="274.4" y2="327.8" stroke="#000000" stroke-width="1.5" />
  <line x1="274.4" y1="327.8" x2="274.4" y2="546.2" stroke="#000000" stroke-width="1.5" />
  <line x1="20.0" y1="327.8" x2="495.2" y2="327.8" stroke="#000000" stroke-width="1.5" />
  <line x1="495.2" y1="155.6" x2="20.0" y2="155.6" stroke="#000000" stroke-width="1.5" />
  <line x1="20.0" y1="155.6" x2="359.0" y2="155.6" stroke="#000000" stroke-width="1.5" />
  <line x1="359.0" y1="155.6" x2="359.0" y2="20.0" stroke="#000000" stroke-width="1.5" />
  <line x1="359.0" y1="155.6" x2="495.2" y2="155.6" stroke="#000000" stroke-width="1.5" />
  <line x1="359.0" y1="20.0" x2="359.0" y2="155.6" stroke="#000000" stroke-width="1.5" />
  <text x="20" y="15" font-size="11" fill="#333333" font-family="Arial">T2_A — 7.9m × 8.8m — 69.5m²</text>
</svg>