<svg xmlns="http://www.w3.org/2000/svg" viewBox="0 0 940 717" width="940" height="717">
  <rect width="940" height="717" fill="white" />
  <rect x="20.0" y="399.8" width="537.0" height="297.6" fill="#AED6F1" opacity="0.6" stroke="none" />
  <text x="288.5" y="548.6" text-anchor="middle" dominant-baseline="middle" font-size="53" fill="#555555" font-family="Arial">salon</text>
  <rect x="557.0" y="399.8" width="363.0" height="297.6" fill="#A9DFBF" opacity="0.6" stroke="none" />
  <text x="738.5" y="548.6" text-anchor="middle" dominant-baseline="middle" font-size="53" fill="#555555" font-family="Arial">cuisine</text>
  <rect x="20.0" y="167.6" width="204.6" height="232.2" fill="#F9E79F" opacity="0.6" stroke="none" />
  <text x="122.3" y="283.7" text-anchor="middle" dominant-baseline="middle" font-size="36" fill="#555555" font-family="Arial">chambre</text>
  <rect x="224.6" y="167.6" width="186.6" height="232.2" fill="#F9E79F" opacity="0.6" stroke="none" />
  <text x="317.9" y="283.7" text-anchor="middle" dominant-baseline="middle" font-size="33" fill="#555555" font-family="Arial">chambre</text>
  <rect x="411.2" y="167.6" width="220.8" height="232.2" fill="#F9E79F" opacity="0.6" stroke="none" />
  <text x="521.6" y="283.7" text-anchor="middle" dominant-baseline="middle" font-size="39" fill="#555555" font-family="Arial">chambre</text>
  <rect x="632.0" y="167.6" width="183.0" height="232.2" fill="#FADBD8" opacity="0.6" stroke="none" />
  <text x="723.5" y="283.7" text-anchor="middle" dominant-baseline="middle" font-size="32" fill="#555555" font-family="Arial">bureau</text>
  <rect x="815.0" y="167.6" width="105.0" height="232.2" fill="#D6EAF8" opacity="0.6" stroke="none" />
  <text x="867.5" y="283.7" text-anchor="middle" dominant-baseline="middle" font-size="18" fill="#555555" font-family="Arial">dressing</text>
  <rect x="20.0" y="20.0" width="600.0" height="147.6" fill="#D7BDE2" opacity="0.6" stroke="none" />
  <text x="320.0" y="93.8" text-anchor="middle" dominant-baseline="middle" font-size="26" fill="#555555" font-family="Arial">salle bain</text>
  <rect x="620.0" y="20.0" width="300.0" height="147.6" fill="#FDEBD0" opacity="0.6" stroke="none" />
  <text x="770.0" y="93.8" text-anchor="middle" dominant-baseline="middle" font-size="26" fill="#555555" font-family="Arial">wc</text>
  <line x1="20" y1="697.4" x2="920.0" y2="697.4" stroke="#000000" stroke-width="3" />
  <line x1="920.0" y1="697.4" x2="920.0" y2="20.0" stroke="#000000" stroke-width="3" />
  <line x1="920.0" y1="20.0" x2="20" y2="20.0" stroke="#000000" stroke-width="3" />
  <line x1="20" y1="20.0" x2="20" y2="697.4" stroke="#000000" stroke-width="3" />
  <line x1="557.0" y1="697.4" x2="557.0" y2="399.8" stroke="#000000" stroke-width="1.5" />
  <line x1="557.0" y1="399.8" x2="20.0" y2="399.8" stroke="#000000" stroke-width="1.5" />
  <line x1="920.0" y1="399.8" x2="557.0" y2="399.8" stroke="#000000" stroke-width="1.5" />
  <line x1="557.0" y1="399.8" x2="557.0" y2="697.4" stroke="#000000" stroke-width="1.5" />
  <line x1="20.0" y1="399.8" x2="224.6" y2="399.8" stroke="#000000" stroke-width="1.5" />
  <line x1="224.6" y1="399.8" x2="224.6" y2="167.6" stroke="#000000" stroke-width="1.5" />
  <line x1="224.6" y1="167.6" x2="20.0" y2="167.6" stroke="#000000" stroke-width="1.5" />
  <line x1="224.6" y1="399.8" x2="411.2" y2="399.8" stroke="#000000" stroke-width="1.5" />
  <line x1="411.2" y1="399.8" x2="411.2" y2="167.6" stroke="#000000" stroke-width="1.5" />
  <line x1="411.2" y1="167.6" x2="224.6" y2="167.6" stroke="#000000" stroke-width="1.5" />
  <line x1="224.6" y1="167.6" x2="224.6" y2="399.8" stroke="#000000" stroke-width="1.5" />
  <line x1="411.2" y1="399.8" x2="632.0" y2="399.8" stroke="#000000" stroke-width="1.5" />
  <line x1="632.0" y1="399.8" x2="632.0" y2="167.6" stroke="#000000" stroke-width="1.5" />
  <line x1="632.0" y1="167.6" x2="411.2" y2="167.6" stroke="#000000" stroke-width="1.5" />
  <line x1="411.2" y1="167.6" x2="411.2" y2="399.8" stroke="#000000" stroke-width="1.5" />
  <line x1="632.0" y1="399.8" x2="815.0" y2="399.8" stroke="#000000" stroke-width="1.5" />
  <line x1="815.0" y1="399.8" x2="815.0" y2="167.6" stroke="#000000" stroke-width="1.5" />
  <line x1="815.0" y1="167.6" x2="632.0" y2="167.6" stroke="#000000" stroke-width="1.5" />
  <line x1="632.0" y1="167.6" x2="632.0" y2="399.8" stroke="#000000" stroke-width="1.5" />
  <line x1="815.0" y1="399.8" x2="920.0" y2="399.8" stroke="#000000" stroke-width="1.5" />
  <line x1="920.0" y1="167.6" x2="815.0" y2="167.6" stroke="#000000" stroke-width="1.5" />
  <line x1="815.0" y1="167.6" x2="815.0" y2="399.8" stroke="#000000" stroke-width="1.5" />
  <line x1="20.0" y1="167.6" x2="620.0" y2="167.6" stroke="#000000" stroke-width="1.5" />
  <line x1="620.0" y1="167.6" x2="620.0" y2="20.0" stroke="#000000" stroke-width="1.5" />
  <line x1="620.0" y1="167.6" x2="920.0" y2="167.6" stroke="#000000" stroke-width="1.5" />
  <line x1="620.0" y1="20.0" x2="620.0" y2="167.6" stroke="#000000" stroke-width="1.5" />
  <text x="20" y="15" font-size="11" fill="#333333" font-family="Arial">T4_B — 15.0m × 11.3m — 169.3m²</text>
</svg>