<svg xmlns="http://www.w3.org/2000/svg" viewBox="0 0 689 707" width="689" height="707">
  <rect width="689" height="707" fill="white" />
  <rect x="20.0" y="398.6" width="411.6" height="288.6" fill="#AED6F1" opacity="0.6" stroke="none" />
  <text x="225.8" y="542.9" text-anchor="middle" dominant-baseline="middle" font-size="51" fill="#555555" font-family="Arial">salon</text>
  <rect x="431.6" y="398.6" width="237.6" height="288.6" fill="#A9DFBF" opacity="0.6" stroke="none" />
  <text x="550.4" y="542.9" text-anchor="middle" dominant-baseline="middle" font-size="42" fill="#555555" font-family="Arial">cuisine</text>
  <rect x="20.0" y="214.4" width="243.0" height="184.2" fill="#F9E79F" opacity="0.6" stroke="none" />
  <text x="141.5" y="306.5" text-anchor="middle" dominant-baseline="middle" font-size="33" fill="#555555" font-family="Arial">chambre</text>
  <rect x="263.0" y="214.4" width="209.4" height="184.2" fill="#F9E79F" opacity="0.6" stroke="none" />
  <text x="367.7" y="306.5" text-anchor="middle" dominant-baseline="middle" font-size="33" fill="#555555" font-family="Arial">chambre</text>
  <rect x="472.4" y="214.4" width="196.8" height="184.2" fill="#F9E79F" opacity="0.6" stroke="none" />
  <text x="570.8" y="306.5" text-anchor="middle" dominant-baseline="middle" font-size="33" fill="#555555" font-family="Arial">chambre</text>
  <rect x="20.0" y="20.0" width="205.2" height="194.4" fill="#D7BDE2" opacity="0.6" stroke="none" />
  <text x="122.6" y="117.2" text-anchor="middle" dominant-baseline="middle" font-size="34" fill="#555555" font-family="Arial">salle bain</text>
  <rect x="225.2" y="20.0" width="235.2" height="194.4" fill="#D7BDE2" opacity="0.6" stroke="none" />
  <text x="342.8" y="117.2" text-anchor="middle" dominant-baseline="middle" font-size="34" fill="#555555" font-family="Arial">salle bain</text>
  <rect x="460.4" y="20.0" width="99.0" height="194.4" fill="#FDEBD0" opacity="0.6" stroke="none" />
  <text x="509.9" y="117.2" text-anchor="middle" dominant-baseline="middle" font-size="17" fill="#555555" font-family="Arial">wc</text>
  <rect x="559.4" y="20.0" width="109.8" height="194.4" fill="#D5D8DC" opacity="0.6" stroke="none" />
  <text x="614.3" y="117.2" text-anchor="middle" dominant-baseline="middle" font-size="19" fill="#555555" font-family="Arial">couloir</text>
  <line x1="20" y1="687.2" x2="669.2" y2="687.2" stroke="#000000" stroke-width="3" />
  <line x1="669.2" y1="687.2" x2="669.2" y2="20.0" stroke="#000000" stroke-width="3" />
  <line x1="669.2" y1="20.0" x2="20" y2="20.0" stroke="#000000" stroke-width="3" />
  <line x1="20" y1="20.0" x2="20" y2="687.2" stroke="#000000" stroke-width="3" />
  <line x1="431.6" y1="687.2" x2="431.6" y2="398.6" stroke="#000000" stroke-width="1.5" />
  <line x1="431.6" y1="398.6" x2="20.0" y2="398.6" stroke="#000000" stroke-width="1.5" />
  <line x1="669.2" y1="398.6" x2="431.6" y2="398.6" stroke="#000000" stroke-width="1.5" />
  <line x1="431.6" y1="398.6" x2="431.6" y2="687.2" stroke="#000000" stroke-width="1.5" />
  <line x1="20.0" y1="398.6" x2="263.0" y2="398.6" stroke="#000000" stroke-width="1.5" />
  <line x1="263.0" y1="398.6" x2="263.0" y2="214.4" stroke="#000000" stroke-width="1.5" />
  <line x1="263.0" y1="214.4" x2="20.0" y2="214.4" stroke="#000000" stroke-width="1.5" />
  <line x1="263.0" y1="398.6" x2="472.4" y2="398.6" stroke="#000000" stroke-width="1.5" />
  <line x1="472.4" y1="398.6" x2="472.4" y2="214.4" stroke="#000000" stroke-width="1.5" />
  <line x1="472.4" y1="214.4" x2="263.0" y2="214.4" stroke="#000000" stroke-width="1.5" />
  <line x1="263.0" y1="214.4" x2="263.0" y2="398.6" stroke="#000000" stroke-width="1.5" />
  <line x1="472.4" y1="398.6" x2="669.2" y2="398.6" stroke="#000000" stroke-width="1.5" />
  <line x1="669.2" y1="214.4" x2="472.4" y2="214.4" stroke="#000000" stroke-width="1.5" />
  <line x1="472.4" y1="214.4" x2="472.4" y2="398.6" stroke="#000000" stroke-width="1.5" />
  <line x1="20.0" y1="214.4" x2="225.2" y2="214.4" stroke="#000000" stroke-width="1.5" />
  <line x1="225.2" y1="214.4" x2="225.2" y2="20.0" stroke="#000000" stroke-width="1.5" />
  <line x1="225.2" y1="20.0" x2="20.0" y2="20.0" stroke="#000000" stroke-width="1.5" />
  <line x1="225.2" y1="214.4" x2="460.4" y2="214.4" stroke="#000000" stroke-width="1.5" />
  <line x1="460.4" y1="214.4" x2="460.4" y2="20.0" stroke="#000000" stroke-width="1.5" />
  <line x1="460.4" y1="20.0" x2="225.2" y2="20.0" stroke="#000000" stroke-width="1.5" />
  <line x1="225.2" y1="20.0" x2="225.2" y2="214.4" stroke="#000000" stroke-width="1.5" />
  <line x1="460.4" y1="214.4" x2="559.4" y2="214.4" stroke="#000000" stroke-width="1.5" />
  <line x1="559.4" y1="214.4" x2="559.4" y2="20.0" stroke="#000000" stroke-width="1.5" />
  <line x1="559.4" y1="20.0" x2="460.4" y2="20.0" stroke="#000000" stroke-width="1.5" />
  <line x1="460.4" y1="20.0" x2="460.4" y2="214.4" stroke="#000000" stroke-width="1.5" />
  <line x1="559.4" y1="214.4" x2="669.2" y2="214.4" stroke="#000000" stroke-width="1.5" />
  <line x1="669.2" y1="20.0" x2="559.4" y2="20.0" stroke="#000000" stroke-width="1.5" />
  <line x1="559.4" y1="20.0" x2="559.4" y2="214.4" stroke="#000000" stroke-width="1.5" />
  <text x="20" y="15" font-size="11" fill="#333333" font-family="Arial">T4_A — 10.8m × 11.1m — 120.3m²</text>
</svg>