<svg xmlns="http://www.w3.org/2000/svg" viewBox="0 0 581 679" width="581" height="679">
  <rect width="581" height="679" fill="white" />
  <rect x="20.0" y="365.0" width="304.2" height="294.6" fill="#AED6F1" opacity="0.6" stroke="none" />
  <text x="172.1" y="512.3" text-anchor="middle" dominant-baseline="middle" font-size="53" fill="#555555" font-family="Arial">salon</text>
  <rect x="324.2" y="365.0" width="237.0" height="294.6" fill="#A9DFBF" opacity="0.6" stroke="none" />
  <text x="442.7" y="512.3" text-anchor="middle" dominant-baseline="middle" font-size="42" fill="#555555" font-family="Arial">cuisine</text>
  <rect x="20.0" y="146.0" width="214.8" height="219.0" fill="#F9E79F" opacity="0.6" stroke="none" />
  <text x="127.4" y="255.5" text-anchor="middle" dominant-baseline="middle" font-size="38" fill="#555555" font-family="Arial">chambre</text>
  <rect x="234.8" y="146.0" width="174.0" height="219.0" fill="#F9E79F" opacity="0.6" stroke="none" />
  <text x="321.8" y="255.5" text-anchor="middle" dominant-baseline="middle" font-size="31" fill="#555555" font-family="Arial">chambre</text>
  <rect x="408.8" y="146.0" width="152.4" height="219.0" fill="#FADBD8" opacity="0.6" stroke="none" />
  <text x="485.0" y="255.5" text-anchor="middle" dominant-baseline="middle" font-size="27" fill="#555555" font-family="Arial">bureau</text>
  <rect x="20.0" y="20.0" width="384.0" height="126.0" fill="#D7BDE2" opacity="0.6" stroke="none" />
  <text x="212.0" y="83.0" text-anchor="middle" dominant-baseline="middle" font-size="22" fill="#555555" font-family="Arial">salle bain</text>
  <rect x="404.0" y="20.0" width="157.2" height="126.0" fill="#FDEBD0" opacity="0.6" stroke="none" />
  <text x="482.6" y="83.0" text-anchor="middle" dominant-baseline="middle" font-size="22" fill="#555555" font-family="Arial">wc</text>
  <line x1="20" y1="659.6" x2="561.2" y2="659.6" stroke="#000000" stroke-width="3" />
  <line x1="561.2" y1="659.6" x2="561.2" y2="20.0" stroke="#000000" stroke-width="3" />
  <line x1="561.2" y1="20.0" x2="20" y2="20.0" stroke="#000000" stroke-width="3" />
  <line x1="20" y1="20.0" x2="20" y2="659.6" stroke="#000000" stroke-width="3" />
  <line x1="324.2" y1="659.6" x2="324.2" y2="365.0" stroke="#000000" stroke-width="1.5" />
  <line x1="324.2" y1="365.0" x2="20.0" y2="365.0" stroke="#000000" stroke-width="1.5" />
  <line x1="561.2" y1="365.0" x2="324.2" y2="365.0" stroke="#000000" stroke-width="1.5" />
  <line x1="324.2" y1="365.0" x2="324.2" y2="659.6" stroke="#000000" stroke-width="1.5" />
  <line x1="20.0" y1="365.0" x2="234.8" y2="365.0" stroke="#000000" stroke-width="1.5" />
  <line x1="234.8" y1="365.0" x2="234.8" y2="146.0" stroke="#000000" stroke-width="1.5" />
  <line x1="234.8" y1="146.0" x2="20.0" y2="146.0" stroke="#000000" stroke-width="1.5" />
  <line x1="234.8" y1="365.0" x2="408.8" y2="365.0" stroke="#000000" stroke-width="1.5" />
  <line x1="408.8" y1="365.0" x2="408.8" y2="146.0" stroke="#000000" stroke-width="1.5" />
  <line x1="408.8" y1="146.0" x2="234.8" y2="146.0" stroke="#000000" stroke-width="1.5" />
  <line x1="234.8" y1="146.0" x2="234.8" y2="365.0" stroke="#000000" stroke-width="1.5" />
  <line x1="408.8" y1="365.0" x2="561.2" y2="365.0" stroke="#000000" stroke-width="1.5" />
  <line x1="561.2" y1="146.0" x2="408.8" y2="146.0" stroke="#000000" stroke-width="1.5" />
  <line x1="408.8" y1="146.0" x2="408.8" y2="365.0" stroke="#000000" stroke-width="1.5" />
  <line x1="20.0" y1="146.0" x2="404.0" y2="146.0" stroke="#000000" stroke-width="1.5" />
  <line x1="404.0" y1="146.0" x2="404.0" y2="20.0" stroke="#000000" stroke-width="1.5" />
  <line x1="404.0" y1="146.0" x2="561.2" y2="146.0" stroke="#000000" stroke-width="1.5" />
  <line x1="404.0" y1="20.0" x2="404.0" y2="146.0" stroke="#000000" stroke-width="1.5" />
  <text x="20" y="15" font-size="11" fill="#333333" font-family="Arial">T3_B — 9.0m × 10.7m — 96.2m²</text>
</svg>