<svg xmlns="http://www.w3.org/2000/svg" viewBox="0 0 584 470" width="584" height="470">
  <rect width="584" height="470" fill="white" />
  <rect x="20.0" y="150.8" width="337.2" height="300.0" fill="#AED6F1" opacity="0.6" stroke="none" />
  <text x="188.6" y="300.8" text-anchor="middle" dominant-baseline="middle" font-size="54" fill="#555555" font-family="Arial">salon</text>
  <rect x="357.2" y="150.8" width="207.0" height="300.0" fill="#A9DFBF" opacity="0.6" stroke="none" />
  <text x="460.7" y="300.8" text-anchor="middle" dominant-baseline="middle" font-size="37" fill="#555555" font-family="Arial">cuisine</text>
  <rect x="20.0" y="20.0" width="386.4" height="130.8" fill="#D7BDE2" opacity="0.6" stroke="none" />
  <text x="213.2" y="85.4" text-anchor="middle" dominant-baseline="middle" font-size="23" fill="#555555" font-family="Arial">salle bain</text>
  <rect x="406.4" y="20.0" width="157.8" height="130.8" fill="#FDEBD0" opacity="0.6" stroke="none" />
  <text x="485.3" y="85.4" text-anchor="middle" dominant-baseline="middle" font-size="23" fill="#555555" font-family="Arial">wc</text>
  <line x1="20" y1="450.8" x2="564.2" y2="450.8" stroke="#000000" stroke-width="3" />
  <line x1="564.2" y1="450.8" x2="564.2" y2="20.0" stroke="#000000" stroke-width="3" />
  <line x1="564.2" y1="20.0" x2="20" y2="20.0" stroke="#000000" stroke-width="3" />
  <line x1="20" y1="20.0" x2="20" y2="450.8" stroke="#000000" stroke-width="3" />
  <line x1="357.2" y1="450.8" x2="357.2" y2="150.8" stroke="#000000" stroke-width="1.5" />
  <line x1="357.2" y1="150.8" x2="20.0" y2="150.8" stroke="#000000" stroke-width="1.5" />
  <line x1="564.2" y1="150.8" x2="357.2" y2="150.8" stroke="#000000" stroke-width="1.5" />
  <line x1="357.2" y1="150.8" x2="357.2" y2="450.8" stroke="#000000" stroke-width="1.5" />
  <line x1="20.0" y1="150.8" x2="406.4" y2="150.8" stroke="#000000" stroke-width="1.5" />
  <line x1="406.4" y1="150.8" x2="406.4" y2="20.0" stroke="#000000" stroke-width="1.5" />
  <line x1="406.4" y1="150.8" x2="564.2" y2="150.8" stroke="#000000" stroke-width="1.5" />
  <line x1="406.4" y1="20.0" x2="406.4" y2="150.8" stroke="#000000" stroke-width="1.5" />
  <text x="20" y="15" font-size="11" fill="#333333" font-family="Arial">Studio — 9.1m × 7.2m — 65.1m²</text>
</svg>